<svg xmlns="http://www.w3.org/2000/svg" viewBox="0 0 594 1179" role="img" aria-labelledby="title desc">
  <title id="title">Pay To Play guitar dollar sign icon</title>
  <desc id="desc">A black guitar silhouette combined with a dollar sign, used as the Pay To Play icon.</desc>
  <path d="M 268 563 L 268 613 L 243 621 L 218 636 L 200 658 L 191 686 L 193 718 L 208 747 L 231 766 L 268 780 L 268 921 L 245 916 L 207 897 L 196 927 L 230 945 L 268 957 L 269 1022 L 292 1021 L 293 961 L 318 963 L 318 1021 L 341 1022 L 342 962 L 383 952 L 412 936 L 435 910 L 447 871 L 444 837 L 428 807 L 398 783 L 342 763 L 342 648 L 358 651 L 378 662 L 397 681 L 407 699 L 432 692 L 436 686 L 423 662 L 402 640 L 379 626 L 342 614 L 341 562 L 318 563 L 317 611 L 292 610 L 291 562 Z M 343 797 L 354 799 L 375 807 L 395 820 L 408 836 L 412 846 L 413 855 L 414 856 L 414 866 L 413 867 L 412 879 L 406 893 L 401 900 L 390 911 L 381 917 L 368 923 L 349 928 L 343 928 L 342 927 L 342 798 Z M 293 786 L 316 790 L 318 792 L 318 929 L 317 930 L 296 929 L 292 927 L 292 787 Z M 264 646 L 268 647 L 268 744 L 267 745 L 263 745 L 255 742 L 239 732 L 229 720 L 225 711 L 224 702 L 223 701 L 224 685 L 230 670 L 242 657 L 248 653 Z M 295 641 L 310 641 L 318 643 L 318 757 L 317 758 L 295 754 L 292 752 L 292 654 L 291 651 L 292 650 L 292 643 Z M 278 80 L 265 88 L 261 110 L 245 107 L 237 117 L 245 132 L 264 128 L 265 148 L 247 143 L 237 157 L 247 169 L 265 163 L 266 186 L 245 180 L 238 197 L 249 206 L 269 199 L 277 217 L 269 507 L 182 521 L 151 542 L 129 573 L 120 625 L 141 708 L 142 745 L 86 886 L 82 972 L 110 1039 L 134 1064 L 172 1086 L 238 1098 L 432 1097 L 477 1075 L 513 1018 L 497 1015 L 452 1049 L 422 1060 L 217 1058 L 159 1034 L 132 1002 L 118 960 L 123 885 L 175 749 L 174 707 L 154 627 L 164 584 L 187 560 L 220 546 L 341 543 L 333 215 L 341 199 L 355 205 L 371 199 L 368 182 L 343 185 L 344 163 L 362 169 L 373 157 L 363 143 L 345 148 L 346 127 L 365 132 L 373 117 L 361 106 L 348 111 L 338 82 Z" fill="#000000" fill-rule="evenodd"/>
</svg>
